# xmcd
#
# Track frame offsets:
#	150
#	11140
#	25120
#	36927
#	48900
#	61945
#	73110
#	89562
#	102642
#	116275
#	128185
#	141977
#	155155
#	170515
#	182120
#	195437
#	207355
#	223105
#	233937
#	256622
#	268410
#	282350
#	297552
#
# Disc length: 4168 seconds
#
# Revision: 2
# Processed by: cddbd v1.4b42PL1 Copyright (c) Steve Scherf et al.
# Submitted via: audiograbber 1.80
#
DISCID=6b104617
DTITLE=Various Artist - Beach Music Anthology  Disc 2
DYEAR=1900
DGENRE=
TTITLE0=Ravens - Green Eyes
TTITLE1=Stewart, Billy - I Do Love You
TTITLE2=Moore, Bobby and Rhythm Aces - Searching For My Baby
TTITLE3=Clarke, Tony - The Entertainer
TTITLE4=Radiants - Ain't No Big Thing
TTITLE5=James, Eltta - Tell Mama
TTITLE6=Dells - There Is
TTITLE7=Fantastics - Something Old Something New
TTITLE8=Bass, Fontella - Rescue Me
TTITLE9=Stewart, Bily - Fat Boy
TTITLE10=McCall Cash - That Lucky Old Sun
TTITLE11=Alexander, Arthur - Anna
TTITLE12=Jackson, Chuck - Any Day Now
TTITLE13=Meyer, Bob - Behold
TTITLE14=James, Etta - Pushover
TTITLE15=Radiants - Voice Your Choice
TTITLE16=Dells - Wear It On Our Face
TTITLE17=Swinging Medallions - Double Shot Of My Baby's Love
TTITLE18=Stewart, Billy - Summertime
TTITLE19=Bass, Fontella  and  McClure, Bobby - You'll Miss Me (When I'm Gone)
TTITLE20=Corsairs - Smoky Places
TTITLE21=Stewart Billy - Sitting In The Park
TTITLE22=Rockin' Louie And Mamma Jammers - Club Savoy
EXTD=
EXTT0=
EXTT1=
EXTT2=
EXTT3=
EXTT4=
EXTT5=
EXTT6=
EXTT7=
EXTT8=
EXTT9=
EXTT10=
EXTT11=
EXTT12=
EXTT13=
EXTT14=
EXTT15=
EXTT16=
EXTT17=
EXTT18=
EXTT19=
EXTT20=
EXTT21=
EXTT22=
PLAYORDER=
